<svg xmlns="http://www.w3.org/2000/svg" viewBox="0 0 800 500" role="img"><rect width="800" height="500" fill="#f6a86b"/><rect y="200" width="800" height="160" fill="#ffe8c2" opacity=".6"/><circle cx="650" cy="90" r="42" fill="#fff6c9" opacity=".9"/><rect y="360" width="800" height="140" fill="#8fa653"/><g transform="translate(110 0)"><rect y="270" width="190" height="120" fill="#e3d2b8"/><polygon points="-8,270 95,220 198,270" fill="#5b4636"/><rect x="20" y="285" width="34" height="40" rx="3" fill="#fff7cf" stroke="#3b4a5a" stroke-width="3"/><rect x="104" y="285" width="34" height="40" rx="3" fill="#fff7cf" stroke="#3b4a5a" stroke-width="3"/></g><g transform="translate(305 0)"><rect y="270" width="190" height="120" fill="#d9c3a5"/><polygon points="-8,270 95,220 198,270" fill="#5b4636"/><rect x="20" y="285" width="34" height="40" rx="3" fill="#fff7cf" stroke="#3b4a5a" stroke-width="3"/><rect x="104" y="285" width="34" height="40" rx="3" fill="#fff7cf" stroke="#3b4a5a" stroke-width="3"/></g><g transform="translate(500 0)"><rect y="270" width="190" height="120" fill="#e3d2b8"/><polygon points="-8,270 95,220 198,270" fill="#5b4636"/><rect x="20" y="285" width="34" height="40" rx="3" fill="#fff7cf" stroke="#3b4a5a" stroke-width="3"/><rect x="104" y="285" width="34" height="40" rx="3" fill="#fff7cf" stroke="#3b4a5a" stroke-width="3"/></g><rect x="55.2" y="378.0" width="9.600000000000001" height="32.0" fill="#6b4a2f"/><circle cx="60" cy="360.4" r="27.200000000000003" fill="#3f8f4a"/></svg>